<svg width="20" height="21" viewBox="0 0 20 21" fill="none" xmlns="http://www.w3.org/2000/svg">
<g clip-path="url(#clip0_1_4763)">
<path d="M10 15.6034C9 15.6034 8.06898 15.3276 7.24137 14.7759C6.41379 14.2241 5.79309 13.5345 5.3793 12.6724L1.24137 5.5C0.379297 7.05172 0 8.74137 0 10.5C0 13.0172 0.827578 15.1896 2.44828 17.0517C4.06898 18.9138 6.10344 20.0172 8.51727 20.3966L11.4138 15.3621C11.1379 15.4655 10.6207 15.6034 10 15.6034Z" fill="white"/>
<path d="M6.86209 6.36207C7.7931 5.63793 8.8276 5.32758 10 5.32758H18.5862C17.6897 3.81035 16.4828 2.70687 14.9655 1.8448C13.4483 0.948281 11.7931 0.5 10 0.5C8.4483 0.5 6.96552 0.844844 5.62072 1.5C4.27592 2.15516 3.00002 3.1207 2.10345 4.36207L5.00002 9.1207C5.27588 8.01723 5.93103 7.08621 6.86209 6.36207Z" fill="white"/>
<path d="M19.2414 6.74121H13.4483C14.4483 7.74121 15.1379 9.05156 15.1379 10.4999C15.1379 11.5689 14.8276 12.5344 14.2414 13.4309L10.1035 20.4999C12.8276 20.4654 15.1724 19.4999 17.1035 17.5344C19.0345 15.5689 20 13.224 20 10.4999C20 9.22399 19.7931 7.87914 19.2414 6.74121Z" fill="white"/>
<path d="M9.99999 6.70703C12.069 6.70703 13.7931 8.43117 13.7931 10.5001C13.7931 12.569 12.069 14.2932 9.99999 14.2932C7.93101 14.2932 6.20691 12.5691 6.20691 10.5001C6.20691 8.43113 7.93101 6.70703 9.99999 6.70703Z" fill="white"/>
</g>
<defs>
<clipPath id="clip0_1_4763">
<rect width="20" height="20" fill="white" transform="translate(0 0.5)"/>
</clipPath>
</defs>
</svg>
