<svg width="221" height="100" viewBox="0 0 221 100" fill="none" xmlns="http://www.w3.org/2000/svg">
<g filter="url(#filter0_d_1_5102)">
<path d="M95.0804 38.6995C93.4839 38.6995 92.0015 38.4006 90.633 37.8027C89.2646 37.1818 88.1015 36.3425 87.1436 35.2847C86.1857 34.2268 85.4787 33.0081 85.0225 31.6283L88.4436 30.1796C89.0594 31.7663 89.9602 32.9851 91.1462 33.8359C92.3322 34.6868 93.7006 35.1122 95.2515 35.1122C96.1637 35.1122 96.962 34.9742 97.6462 34.6983C98.3304 34.3993 98.855 33.9854 99.2199 33.4565C99.6076 32.9276 99.8015 32.3182 99.8015 31.6283C99.8015 30.6855 99.5392 29.9381 99.0146 29.3862C98.4901 28.8343 97.7146 28.3974 96.6883 28.0755L91.8988 26.5577C89.983 25.9598 88.5234 25.0515 87.5199 23.8327C86.5164 22.5909 86.0146 21.1422 86.0146 19.4865C86.0146 18.0378 86.3681 16.773 87.0752 15.6922C87.7822 14.5884 88.7515 13.726 89.983 13.1052C91.2374 12.4843 92.6629 12.1738 94.2594 12.1738C95.7874 12.1738 97.1787 12.4498 98.433 13.0017C99.6874 13.5306 100.759 14.2664 101.649 15.2093C102.561 16.1521 103.223 17.2444 103.633 18.4862L100.28 19.9694C99.7787 18.6127 98.9918 17.5664 97.9199 16.8305C96.8708 16.0946 95.6506 15.7267 94.2594 15.7267C93.4155 15.7267 92.6743 15.8762 92.0357 16.1751C91.3971 16.4511 90.8953 16.865 90.5304 17.4169C90.1883 17.9458 90.0173 18.5667 90.0173 19.2795C90.0173 20.1074 90.2795 20.8433 90.8041 21.4871C91.3287 22.131 92.1269 22.6139 93.1988 22.9359L97.6462 24.3501C99.676 24.971 101.204 25.8679 102.23 27.0406C103.257 28.1904 103.77 29.6277 103.77 31.3524C103.77 32.7781 103.394 34.0429 102.641 35.1467C101.911 36.2505 100.896 37.1243 99.5962 37.7682C98.2962 38.3891 96.7909 38.6995 95.0804 38.6995Z" fill="#313B49"/>
<path d="M115.93 38.4926C113.992 38.4926 112.487 37.9407 111.415 36.8369C110.343 35.7331 109.807 34.1809 109.807 32.1802V23.1428H106.557V19.6245H107.07C107.937 19.6245 108.609 19.3715 109.088 18.8656C109.567 18.3597 109.807 17.6698 109.807 16.796V15.3473H113.672V19.6245H117.88V23.1428H113.672V32.0077C113.672 32.6516 113.775 33.2035 113.98 33.6635C114.186 34.1004 114.516 34.4453 114.972 34.6983C115.429 34.9282 116.022 35.0432 116.751 35.0432C116.934 35.0432 117.139 35.0317 117.367 35.0087C117.595 34.9857 117.812 34.9627 118.017 34.9397V38.2856C117.698 38.3316 117.344 38.3776 116.957 38.4236C116.569 38.4696 116.227 38.4926 115.93 38.4926Z" fill="#313B49"/>
<path d="M121.79 38.2856V19.6245H125.656V38.2856H121.79ZM121.79 17.0719V12.5878H125.656V17.0719H121.79Z" fill="#313B49"/>
<path d="M138.967 38.6995C137.12 38.6995 135.478 38.2741 134.041 37.4233C132.627 36.5494 131.498 35.3766 130.654 33.9049C129.833 32.4332 129.423 30.766 129.423 28.9033C129.423 27.0636 129.833 25.4079 130.654 23.9362C131.475 22.4645 132.604 21.3147 134.041 20.4868C135.478 19.636 137.12 19.2106 138.967 19.2106C140.222 19.2106 141.396 19.4405 142.491 19.9004C143.586 20.3374 144.532 20.9467 145.331 21.7286C146.152 22.5105 146.756 23.4188 147.144 24.4536L143.757 26.0403C143.369 25.0745 142.742 24.3041 141.875 23.7292C141.031 23.1314 140.062 22.8324 138.967 22.8324C137.918 22.8324 136.972 23.0969 136.128 23.6258C135.307 24.1317 134.657 24.856 134.178 25.7989C133.699 26.7187 133.46 27.765 133.46 28.9378C133.46 30.1106 133.699 31.1684 134.178 32.1112C134.657 33.0311 135.307 33.7554 136.128 34.2843C136.972 34.8132 137.918 35.0777 138.967 35.0777C140.085 35.0777 141.054 34.7902 141.875 34.2153C142.719 33.6175 143.346 32.8241 143.757 31.8353L147.144 33.4565C146.779 34.4453 146.186 35.3421 145.365 36.147C144.567 36.9289 143.62 37.5497 142.525 38.0097C141.431 38.4696 140.245 38.6995 138.967 38.6995Z" fill="#313B49"/>
<path d="M150.922 38.2856V12.1738H154.788V29.6622L153.283 29.2827L162.554 19.6245H167.377L160.398 27.1096L167.685 38.2856H163.238L156.738 28.3859L159.03 28.0755L153.556 33.9394L154.788 31.3524V38.2856H150.922Z" fill="#313B49"/>
<path d="M178.927 38.6995C177.148 38.6995 175.518 38.2741 174.035 37.4233C172.576 36.5724 171.413 35.4111 170.546 33.9394C169.679 32.4677 169.246 30.8005 169.246 28.9378C169.246 27.0521 169.679 25.3849 170.546 23.9362C171.413 22.4645 172.576 21.3147 174.035 20.4868C175.495 19.636 177.126 19.2106 178.927 19.2106C180.752 19.2106 182.383 19.636 183.82 20.4868C185.279 21.3147 186.431 22.4645 187.275 23.9362C188.141 25.3849 188.575 27.0521 188.575 28.9378C188.575 30.8235 188.141 32.5022 187.275 33.9739C186.408 35.4456 185.245 36.6069 183.785 37.4578C182.326 38.2856 180.706 38.6995 178.927 38.6995ZM178.927 35.0777C180.022 35.0777 180.991 34.8132 181.835 34.2843C182.679 33.7554 183.341 33.0311 183.82 32.1112C184.321 31.1684 184.572 30.1106 184.572 28.9378C184.572 27.765 184.321 26.7187 183.82 25.7989C183.341 24.879 182.679 24.1547 181.835 23.6258C180.991 23.0969 180.022 22.8324 178.927 22.8324C177.856 22.8324 176.886 23.0969 176.02 23.6258C175.176 24.1547 174.503 24.879 174.001 25.7989C173.522 26.7187 173.283 27.765 173.283 28.9378C173.283 30.1106 173.522 31.1684 174.001 32.1112C174.503 33.0311 175.176 33.7554 176.02 34.2843C176.886 34.8132 177.856 35.0777 178.927 35.0777Z" fill="#313B49"/>
</g>
<g filter="url(#filter1_d_1_5102)">
<path d="M85.0225 59.698V45.4869H89.9253C90.9021 45.4869 91.7079 45.6581 92.3424 46.0004C92.9769 46.3381 93.4494 46.7938 93.7598 47.3674C94.0702 47.9364 94.2254 48.5679 94.2254 49.2618C94.2254 49.8724 94.1181 50.3766 93.9036 50.7745C93.6936 51.1723 93.4151 51.4869 93.0682 51.7182C92.7258 51.9495 92.3538 52.1206 91.9521 52.2316V52.3704C92.3812 52.3982 92.8126 52.5508 93.2462 52.8284C93.6799 53.106 94.0428 53.5038 94.335 54.0219C94.6271 54.54 94.7732 55.1738 94.7732 55.9232C94.7732 56.6356 94.6134 57.2763 94.2939 57.8453C93.9743 58.4143 93.4699 58.8653 92.7806 59.1984C92.0913 59.5315 91.1943 59.698 90.0896 59.698H85.0225ZM86.7207 58.1714H90.0896C91.1989 58.1714 91.9863 57.954 92.4519 57.5192C92.9221 57.0797 93.1572 56.5477 93.1572 55.9232C93.1572 55.4421 93.0362 54.998 92.7943 54.5909C92.5524 54.1792 92.2077 53.8507 91.7603 53.6056C91.313 53.3558 90.7835 53.2309 90.1718 53.2309H86.7207V58.1714ZM86.7207 51.732H89.8705C90.3817 51.732 90.8428 51.6303 91.2536 51.4267C91.6691 51.2232 91.9977 50.9364 92.2397 50.5663C92.4862 50.1962 92.6094 49.7614 92.6094 49.2618C92.6094 48.6372 92.3949 48.1076 91.9658 47.6727C91.5367 47.2333 90.8565 47.0135 89.9253 47.0135H86.7207V51.732Z" fill="#313B49"/>
<path d="M98.3852 63.6949C98.1113 63.6949 97.8671 63.6717 97.6525 63.6255C97.438 63.5838 97.2896 63.5422 97.2074 63.5006L97.6183 62.0573C98.0109 62.159 98.3578 62.196 98.6591 62.1683C98.9604 62.1405 99.2274 62.0041 99.4602 61.7589C99.6976 61.5183 99.9144 61.1274 100.111 60.5862L100.412 59.7535L96.5227 49.0397H98.2756L101.179 57.533H101.288L104.192 49.0397H105.945L101.48 61.2523C101.279 61.8028 101.031 62.2585 100.734 62.6193C100.437 62.9848 100.092 63.2554 99.6999 63.4312C99.3119 63.607 98.8736 63.6949 98.3852 63.6949Z" fill="#313B49"/>
<path d="M113.72 59.698V45.4869H122.129V47.0135H115.418V51.8153H121.499V53.3419H115.418V59.698H113.72Z" fill="#313B49"/>
<path d="M124.818 59.698V49.0397H126.434V59.698H124.818ZM125.64 47.2633C125.325 47.2633 125.053 47.1546 124.825 46.9372C124.601 46.7198 124.489 46.4584 124.489 46.1531C124.489 45.8478 124.601 45.5864 124.825 45.369C125.053 45.1516 125.325 45.0428 125.64 45.0428C125.954 45.0428 126.224 45.1516 126.447 45.369C126.676 45.5864 126.79 45.8478 126.79 46.1531C126.79 46.4584 126.676 46.7198 126.447 46.9372C126.224 47.1546 125.954 47.2633 125.64 47.2633Z" fill="#313B49"/>
<path d="M130.599 49.0397L133.119 53.3974L135.638 49.0397H137.501L134.105 54.3689L137.501 59.698H135.638L133.119 55.5624L130.599 59.698H128.736L132.078 54.3689L128.736 49.0397H130.599Z" fill="#313B49"/>
<path d="M143.783 59.9201C142.77 59.9201 141.896 59.6934 141.161 59.24C140.43 58.7821 139.867 58.1437 139.47 57.3249C139.077 56.5014 138.881 55.5439 138.881 54.4521C138.881 53.3604 139.077 52.3982 139.47 51.5655C139.867 50.7282 140.419 50.0759 141.127 49.6087C141.839 49.1369 142.67 48.9009 143.619 48.9009C144.167 48.9009 144.708 48.9934 145.242 49.1785C145.776 49.3635 146.262 49.6642 146.7 50.0806C147.139 50.4923 147.488 51.0381 147.748 51.7182C148.008 52.3982 148.138 53.2355 148.138 54.2301V54.924H140.031V53.5084H146.495C146.495 52.907 146.376 52.3704 146.139 51.8986C145.906 51.4267 145.573 51.0543 145.139 50.7814C144.71 50.5085 144.203 50.372 143.619 50.372C142.975 50.372 142.418 50.5339 141.948 50.8577C141.483 51.1769 141.124 51.5933 140.873 52.1067C140.622 52.6202 140.497 53.1707 140.497 53.7582V54.7019C140.497 55.5069 140.634 56.1892 140.907 56.7489C141.186 57.3041 141.572 57.7273 142.065 58.0188C142.558 58.3056 143.131 58.449 143.783 58.449C144.208 58.449 144.591 58.3888 144.934 58.2686C145.281 58.1437 145.58 57.9586 145.831 57.7135C146.082 57.4636 146.276 57.1537 146.413 56.7836L147.974 57.2277C147.81 57.7643 147.533 58.2362 147.145 58.6433C146.757 59.0457 146.278 59.3603 145.707 59.587C145.137 59.809 144.495 59.9201 143.783 59.9201Z" fill="#313B49"/>
<path d="M155.28 49.0397V50.4275H149.61V49.0397H155.28ZM151.309 59.698V47.5686C151.309 46.958 151.45 46.4492 151.733 46.0421C152.016 45.635 152.384 45.3297 152.836 45.1261C153.288 44.9226 153.765 44.8208 154.267 44.8208C154.664 44.8208 154.988 44.8532 155.239 44.9179C155.49 44.9827 155.677 45.0428 155.801 45.0984L155.335 46.5139C155.253 46.4862 155.139 46.4515 154.993 46.4098C154.851 46.3682 154.664 46.3474 154.431 46.3474C153.897 46.3474 153.511 46.4838 153.274 46.7568C153.041 47.0297 152.925 47.4299 152.925 47.9572V59.698H151.309Z" fill="#313B49"/>
<path d="M159.161 45.4869V59.698H157.545V45.4869H159.161Z" fill="#313B49"/>
<path d="M163.161 63.6949C162.888 63.6949 162.643 63.6717 162.429 63.6255C162.214 63.5838 162.066 63.5422 161.984 63.5006L162.395 62.0573C162.787 62.159 163.134 62.196 163.435 62.1683C163.737 62.1405 164.004 62.0041 164.237 61.7589C164.474 61.5183 164.691 61.1274 164.887 60.5862L165.188 59.7535L161.299 49.0397H163.052L165.955 57.533H166.065L168.968 49.0397H170.721L166.256 61.2523C166.056 61.8028 165.807 62.2585 165.51 62.6193C165.213 62.9848 164.869 63.2554 164.476 63.4312C164.088 63.607 163.65 63.6949 163.161 63.6949Z" fill="#313B49"/>
</g>
<g filter="url(#filter2_d_1_5102)">
<path d="M70.7394 34.5052V39.442C70.7394 42.3156 70.7394 43.8261 70.2602 45.1524C70.2234 45.226 70.2234 45.2629 70.1865 45.3366C70.0391 45.705 69.8548 46.0734 69.5967 46.405C68.9701 47.326 67.9748 48.3207 66.4266 49.868L49.2491 67.0361C47.8114 68.4729 46.853 69.4308 45.9684 70.0571C45.784 70.2044 45.6366 70.3149 45.4523 70.3886C45.2311 70.5728 44.9731 70.6834 44.7151 70.7939C43.3512 71.3465 41.8398 71.3465 38.8172 71.3465H33.8777C19.9808 71.3465 13.014 71.3465 8.70113 67.0361C4.83065 63.1677 4.42517 57.1995 4.42517 46.0734H18.1377C23.7776 46.0734 28.3853 41.4682 28.3853 35.7947C28.3853 31.1527 25.3258 27.358 20.8655 26.216C19.133 25.7739 17.3636 25.5897 15.6311 25.3686C13.1245 25.037 10.5074 24.2634 8.62741 22.5687C6.63688 20.7634 5.56789 17.9267 5.56789 15.2741V15.0899C5.67847 9.52686 10.2493 5.03223 15.8523 5.03223H27.1689C27.4269 5.03223 27.6481 5.03223 27.9061 5.06907H28.2379C29.9704 5.03223 31.8503 5.03223 33.8777 5.03223H41.2501C55.1469 5.03223 62.1138 5.03223 66.4266 9.34265C70.7394 13.6531 70.7394 20.6161 70.7394 34.5052Z" fill="url(#paint0_linear_1_5102)"/>
<path d="M70.2602 45.1524C70.2234 45.226 70.2234 45.2629 70.1865 45.3366C70.0391 45.705 69.8548 46.0734 69.5967 46.405C68.9701 47.326 67.9748 48.3207 66.4266 49.868L49.2491 67.0361C47.8114 68.4729 46.853 69.4308 45.9684 70.0571C45.784 70.2044 45.6366 70.3149 45.4523 70.3886C45.3048 70.3886 45.2311 70.4255 45.1574 70.4623V66.594C45.1574 56.4995 45.1574 51.4522 48.3275 48.2839C51.4608 45.1524 56.5108 45.1524 66.6109 45.1524H70.2602Z" fill="#0050B3"/>
</g>
<defs>
<filter id="filter0_d_1_5102" x="69.0225" y="0.173828" width="151.552" height="74.5259" filterUnits="userSpaceOnUse" color-interpolation-filters="sRGB">
<feFlood flood-opacity="0" result="BackgroundImageFix"/>
<feColorMatrix in="SourceAlpha" type="matrix" values="0 0 0 0 0 0 0 0 0 0 0 0 0 0 0 0 0 0 127 0" result="hardAlpha"/>
<feOffset dx="8" dy="12"/>
<feGaussianBlur stdDeviation="12"/>
<feColorMatrix type="matrix" values="0 0 0 0 0 0 0 0 0 0 0 0 0 0 0 0 0 0 0.05 0"/>
<feBlend mode="normal" in2="BackgroundImageFix" result="effect1_dropShadow_1_5102"/>
<feBlend mode="normal" in="SourceGraphic" in2="effect1_dropShadow_1_5102" result="shape"/>
</filter>
<filter id="filter1_d_1_5102" x="69.0225" y="32.8208" width="133.698" height="66.874" filterUnits="userSpaceOnUse" color-interpolation-filters="sRGB">
<feFlood flood-opacity="0" result="BackgroundImageFix"/>
<feColorMatrix in="SourceAlpha" type="matrix" values="0 0 0 0 0 0 0 0 0 0 0 0 0 0 0 0 0 0 127 0" result="hardAlpha"/>
<feOffset dx="8" dy="12"/>
<feGaussianBlur stdDeviation="12"/>
<feColorMatrix type="matrix" values="0 0 0 0 0 0 0 0 0 0 0 0 0 0 0 0 0 0 0.05 0"/>
<feBlend mode="normal" in2="BackgroundImageFix" result="effect1_dropShadow_1_5102"/>
<feBlend mode="normal" in="SourceGraphic" in2="effect1_dropShadow_1_5102" result="shape"/>
</filter>
<filter id="filter2_d_1_5102" x="0.825171" y="3.43223" width="83.5143" height="83.5145" filterUnits="userSpaceOnUse" color-interpolation-filters="sRGB">
<feFlood flood-opacity="0" result="BackgroundImageFix"/>
<feColorMatrix in="SourceAlpha" type="matrix" values="0 0 0 0 0 0 0 0 0 0 0 0 0 0 0 0 0 0 127 0" result="hardAlpha"/>
<feOffset dx="5" dy="7"/>
<feGaussianBlur stdDeviation="4.3"/>
<feComposite in2="hardAlpha" operator="out"/>
<feColorMatrix type="matrix" values="0 0 0 0 0 0 0 0 0 0 0 0 0 0 0 0 0 0 0.1 0"/>
<feBlend mode="normal" in2="BackgroundImageFix" result="effect1_dropShadow_1_5102"/>
<feBlend mode="normal" in="SourceGraphic" in2="effect1_dropShadow_1_5102" result="shape"/>
</filter>
<linearGradient id="paint0_linear_1_5102" x1="72.601" y1="27.459" x2="1.52271" y2="44.835" gradientUnits="userSpaceOnUse">
<stop stop-color="#0077FF"/>
<stop offset="1" stop-color="#2DC2FF"/>
</linearGradient>
</defs>
</svg>
