<svg width="106" height="31" viewBox="0 0 106 31" fill="none" xmlns="http://www.w3.org/2000/svg">
<g clip-path="url(#clip0_1_4750)">
<path d="M30.1864 13.8229V16.0701C30.1864 17.3782 30.1864 18.0658 29.9682 18.6695C29.9515 18.703 29.9515 18.7198 29.9347 18.7533C29.8676 18.921 29.7837 19.0887 29.6662 19.2397C29.381 19.6589 28.9279 20.1117 28.2232 20.8161L20.4039 28.631C19.7495 29.285 19.3132 29.7211 18.9105 30.0062C18.8266 30.0732 18.7595 30.1235 18.6756 30.1571C18.5749 30.2409 18.4575 30.2912 18.34 30.3416C17.7192 30.5931 17.0312 30.5931 15.6553 30.5931H13.4068C7.08096 30.5931 3.90963 30.5931 1.94643 28.631C0.184575 26.8701 0 24.1533 0 19.0887H6.24198C8.80925 19.0887 10.9067 16.9925 10.9067 14.4099C10.9067 12.2968 9.51399 10.5695 7.48367 10.0496C6.69503 9.84836 5.88961 9.76451 5.10098 9.66389C3.95997 9.51296 2.76862 9.16079 1.91287 8.38936C1.00677 7.56762 0.520165 6.27631 0.520165 5.06886V4.985C0.570504 2.4527 2.65117 0.406738 5.20165 0.406738H10.353C10.4704 0.406738 10.5711 0.406738 10.6886 0.423508H10.8396C11.6282 0.406738 12.484 0.406738 13.4068 0.406738H16.7627C23.0886 0.406738 26.26 0.406738 28.2232 2.36885C30.1864 4.33097 30.1864 7.50054 30.1864 13.8229Z" fill="url(#paint0_linear_1_4750)"/>
<path d="M29.9682 18.6695C29.9515 18.703 29.9515 18.7198 29.9347 18.7533C29.8676 18.921 29.7837 19.0887 29.6662 19.2397C29.381 19.6589 28.9279 20.1117 28.2232 20.8161L20.4039 28.631C19.7495 29.285 19.3132 29.7211 18.9105 30.0062C18.8266 30.0732 18.7595 30.1235 18.6756 30.1571C18.6085 30.1571 18.5749 30.1739 18.5414 30.1906V28.4298C18.5414 23.8347 18.5414 21.5372 19.9844 20.095C21.4107 18.6695 23.7095 18.6695 28.3071 18.6695H29.9682Z" fill="#0050B3"/>
</g>
<path d="M44.1274 24.576C43.0709 24.576 42.0898 24.3798 41.1842 23.9874C40.2786 23.5799 39.5089 23.029 38.875 22.3347C38.2411 21.6404 37.7732 20.8404 37.4713 19.9349L39.7353 18.984C40.1428 20.0254 40.739 20.8253 41.5238 21.3838C42.3087 21.9422 43.2143 22.2215 44.2406 22.2215C44.8443 22.2215 45.3726 22.1309 45.8254 21.9498C46.2782 21.7536 46.6253 21.4819 46.8668 21.1348C47.1234 20.7876 47.2517 20.3876 47.2517 19.9349C47.2517 19.316 47.0781 18.8255 46.731 18.4633C46.3838 18.101 45.8707 17.8143 45.1915 17.603L42.0219 16.6068C40.7541 16.2144 39.7881 15.6182 39.124 14.8183C38.4599 14.0032 38.1279 13.0524 38.1279 11.9656C38.1279 11.0148 38.3618 10.1847 38.8297 9.47527C39.2976 8.7508 39.939 8.18481 40.7541 7.77729C41.5842 7.36977 42.5275 7.16602 43.5841 7.16602C44.5953 7.16602 45.516 7.34713 46.3461 7.70937C47.1762 8.05651 47.8856 8.5395 48.4742 9.15832C49.078 9.77714 49.5157 10.4941 49.7874 11.3091L47.5687 12.2826C47.2366 11.3921 46.7159 10.7054 46.0065 10.2224C45.3122 9.7394 44.5047 9.49791 43.5841 9.49791C43.0256 9.49791 42.5351 9.59602 42.1125 9.79223C41.6899 9.97335 41.3578 10.245 41.1163 10.6073C40.8899 10.9544 40.7767 11.3619 40.7767 11.8298C40.7767 12.3732 40.9503 12.8561 41.2974 13.2788C41.6446 13.7014 42.1728 14.0183 42.8822 14.2296L45.8254 15.1579C47.1687 15.5654 48.1799 16.154 48.8591 16.9238C49.5383 17.6784 49.8779 18.6217 49.8779 19.7537C49.8779 20.6895 49.6289 21.5196 49.1308 22.2441C48.6478 22.9686 47.9762 23.5421 47.1159 23.9647C46.2555 24.3722 45.2594 24.576 44.1274 24.576Z" fill="#313B49"/>
<path d="M57.9255 24.4402C56.6425 24.4402 55.6464 24.0779 54.937 23.3535C54.2276 22.629 53.8729 21.6102 53.8729 20.2971V14.3655H51.7222V12.0562H52.0618C52.6353 12.0562 53.0806 11.8902 53.3975 11.5581C53.7145 11.2261 53.8729 10.7733 53.8729 10.1997V9.24888H56.4312V12.0562H59.2159V14.3655H56.4312V20.1839C56.4312 20.6065 56.4992 20.9687 56.635 21.2706C56.7708 21.5574 56.9897 21.7838 57.2916 21.9498C57.5934 22.1007 57.9858 22.1762 58.4688 22.1762C58.5896 22.1762 58.7254 22.1686 58.8763 22.1535C59.0273 22.1385 59.1707 22.1234 59.3065 22.1083V24.3043C59.0952 24.3345 58.8612 24.3647 58.6047 24.3949C58.3481 24.4251 58.1217 24.4402 57.9255 24.4402Z" fill="#313B49"/>
<path d="M61.8031 24.3043V12.0562H64.3614V24.3043H61.8031ZM61.8031 10.3809V7.43769H64.3614V10.3809H61.8031Z" fill="#313B49"/>
<path d="M73.1709 24.576C71.9483 24.576 70.8616 24.2968 69.9108 23.7383C68.975 23.1648 68.2279 22.395 67.6694 21.4291C67.1261 20.4631 66.8544 19.3689 66.8544 18.1463C66.8544 16.9389 67.1261 15.8521 67.6694 14.8862C68.2128 13.9202 68.9599 13.1656 69.9108 12.6222C70.8616 12.0638 71.9483 11.7845 73.1709 11.7845C74.001 11.7845 74.7783 11.9355 75.5028 12.2373C76.2273 12.5241 76.8536 12.9241 77.3819 13.4372C77.9252 13.9504 78.3252 14.5466 78.5818 15.2258L76.3405 16.2672C76.0839 15.6333 75.6688 15.1277 75.0953 14.7503C74.5368 14.3579 73.8954 14.1617 73.1709 14.1617C72.4766 14.1617 71.8502 14.3353 71.2918 14.6824C70.7484 15.0145 70.3183 15.4899 70.0013 16.1087C69.6844 16.7125 69.5259 17.3992 69.5259 18.1689C69.5259 18.9387 69.6844 19.633 70.0013 20.2518C70.3183 20.8555 70.7484 21.331 71.2918 21.6781C71.8502 22.0253 72.4766 22.1988 73.1709 22.1988C73.9104 22.1988 74.5519 22.0102 75.0953 21.6328C75.6537 21.2404 76.0688 20.7197 76.3405 20.0707L78.5818 21.1348C78.3403 21.7838 77.9479 22.3724 77.4045 22.9007C76.8763 23.4138 76.2499 23.8213 75.5254 24.1232C74.8009 24.4251 74.0161 24.576 73.1709 24.576Z" fill="#313B49"/>
<path d="M81.0822 24.3043V7.16602H83.6405V18.6444L82.6444 18.3953L88.7798 12.0562H91.972L87.3535 16.969L92.1757 24.3043H89.2326L84.931 17.8067L86.4479 17.603L82.8255 21.4517L83.6405 19.7537V24.3043H81.0822Z" fill="#313B49"/>
<path d="M99.6156 24.576C98.4383 24.576 97.3591 24.2968 96.3781 23.7383C95.4121 23.1799 94.6423 22.4177 94.0688 21.4517C93.4953 20.4858 93.2085 19.3915 93.2085 18.1689C93.2085 16.9313 93.4953 15.8371 94.0688 14.8862C94.6423 13.9202 95.4121 13.1656 96.3781 12.6222C97.344 12.0638 98.4232 11.7845 99.6156 11.7845C100.823 11.7845 101.902 12.0638 102.853 12.6222C103.819 13.1656 104.581 13.9202 105.14 14.8862C105.713 15.8371 106 16.9313 106 18.1689C106 19.4066 105.713 20.5084 105.14 21.4744C104.566 22.4403 103.796 23.2025 102.83 23.761C101.864 24.3043 100.793 24.576 99.6156 24.576ZM99.6156 22.1988C100.34 22.1988 100.981 22.0253 101.54 21.6781C102.098 21.331 102.536 20.8555 102.853 20.2518C103.185 19.633 103.351 18.9387 103.351 18.1689C103.351 17.3992 103.185 16.7125 102.853 16.1087C102.536 15.505 102.098 15.0296 101.54 14.6824C100.981 14.3353 100.34 14.1617 99.6156 14.1617C98.9062 14.1617 98.2647 14.3353 97.6912 14.6824C97.1327 15.0296 96.6875 15.505 96.3554 16.1087C96.0385 16.7125 95.88 17.3992 95.88 18.1689C95.88 18.9387 96.0385 19.633 96.3554 20.2518C96.6875 20.8555 97.1327 21.331 97.6912 21.6781C98.2647 22.0253 98.9062 22.1988 99.6156 22.1988Z" fill="#313B49"/>
<defs>
<linearGradient id="paint0_linear_1_4750" x1="31.0337" y1="10.6154" x2="-1.32121" y2="18.525" gradientUnits="userSpaceOnUse">
<stop stop-color="#0077FF"/>
<stop offset="1" stop-color="#2DC2FF"/>
</linearGradient>
<clipPath id="clip0_1_4750">
<rect width="30.1864" height="30.1864" fill="white" transform="translate(0 0.406738)"/>
</clipPath>
</defs>
</svg>
